FFmpeg version SVN-r25716, Copyright (c) 2000-2010 the FFmpeg developers  built on Nov 10 2010 12:23:18 with gcc 4.1.2 20080704 (Red Hat 4.1.2-48)  configuration: --enable-libmp3lame --enable-shared --disable-mmx --arch=x86_64  libavutil     50.33. 0 / 50.33. 0  libavcore      0.12. 1 /  0.12. 1  libavcodec    52.94. 4 / 52.94. 4  libavformat   52.84. 0 / 52.84. 0  libavdevice   52. 2. 2 / 52. 2. 2  libavfilter    1.59. 0 /  1.59. 0  libswscale     0.12. 0 /  0.12. 0Input #0, avi, from '/RAID10/data/converted_video_files/47604.avi':  Duration: 00:00:07.10, start: 0.000000, bitrate: 187308 kb/s    Stream #0.0: Video: msvideo1, rgb555le, 1024x1024, 20 tbr, 20 tbn, 20 tbc[buffer @ 0xebbe380] w:1024 h:1024 pixfmt:rgb555le[ffsink @ 0xebbd700] auto-inserting filter 'auto-inserted scaler 0' between the filter 'src' and the filter 'out'[scale @ 0xebbd9f0] w:1024 h:1024 fmt:rgb555le -> w:1024 h:1024 fmt:yuv420p flags:0x4Output #0, flv, to '/RAID10/data/converted_video_files/47604.flv':  Metadata:    encoder         : Lavf52.84.0    Stream #0.0: Video: flv, yuv420p, 1024x1024, q=2-31, 600 kb/s, 1k tbn, 24 tbcStream mapping:  Stream #0.0 -> #0.0Press [q] to stop encodingframe=    7 fps=  0 q=9.6 size=     836kB time=0.33 bitrate=20498.5kbits/s    frame=   15 fps= 13 q=30.2 size=     920kB time=0.75 bitrate=10048.4kbits/s    frame=   25 fps= 15 q=24.8 size=     959kB time=1.25 bitrate=6284.4kbits/s    frame=   35 fps= 16 q=31.0 size=     974kB time=1.75 bitrate=4562.4kbits/s    frame=   46 fps= 17 q=31.0 size=    1017kB time=2.29 bitrate=3636.1kbits/s    frame=   57 fps= 18 q=31.0 size=    1060kB time=2.83 bitrate=3063.5kbits/s    frame=   67 fps= 18 q=31.0 size=    1123kB time=3.33 bitrate=2758.5kbits/s    frame=   78 fps= 18 q=31.0 size=    1162kB time=3.88 bitrate=2455.8kbits/s    frame=   89 fps= 18 q=31.0 size=    1201kB time=4.46 bitrate=2206.6kbits/s    frame=  100 fps= 19 q=31.0 size=    1239kB time=5.00 bitrate=2030.6kbits/s    frame=  108 fps= 18 q=31.0 size=    1247kB time=5.38 bitrate=1901.2kbits/s    frame=  118 fps= 18 q=31.0 size=    1285kB time=5.88 bitrate=1791.6kbits/s    frame=  126 fps= 18 q=31.0 size=    1321kB time=6.29 bitrate=1719.8kbits/s    frame=  137 fps= 18 q=31.0 size=    1360kB time=6.83 bitrate=1630.4kbits/s    frame=  142 fps= 18 q=31.0 Lsize=    1365kB time=7.08 bitrate=1578.3kbits/s    video:1362kB audio:0kB global headers:0kB muxing overhead 0.177905%